<svg version="1.1" id="Layer_1" xmlns="http://www.w3.org/2000/svg" xmlns:xlink="http://www.w3.org/1999/xlink" x="0px" y="0px"
	 width="100%" viewBox="0 0 500 500" enable-background="new 0 0 500 500" xml:space="preserve">
<path fill="#000000" opacity="1.000000" stroke="none" 
	d="
M294.000000,501.000000 
	C196.000031,501.000000 98.500046,501.000000 1.000052,501.000000 
	C1.000035,334.333405 1.000035,167.666794 1.000017,1.000142 
	C167.666565,1.000095 334.333130,1.000095 500.999756,1.000047 
	C500.999847,167.666519 500.999847,334.333038 500.999939,500.999786 
	C432.166656,501.000000 363.333344,501.000000 294.000000,501.000000 
M51.000164,255.529419 
	C52.051346,270.125732 51.726700,284.986908 54.473381,299.256866 
	C58.684845,321.136871 66.417305,341.986145 77.947655,361.383575 
	C90.191177,381.980774 105.626518,399.741333 123.773735,415.112000 
	C143.470108,431.794861 166.110992,443.753967 190.526901,451.632599 
	C209.810074,457.855011 230.048325,460.402435 250.355377,460.849518 
	C258.514374,461.029144 266.786957,460.165344 274.866364,458.884277 
	C287.221100,456.925293 299.856903,455.412689 311.645264,451.510773 
	C330.590668,445.239929 348.704987,436.738739 365.109680,425.009460 
	C380.746582,413.829132 394.871002,400.955841 407.087189,386.200348 
	C417.665649,373.423065 426.103180,359.192688 433.091492,344.040894 
	C442.886627,322.803406 448.708008,300.465729 450.742584,277.393829 
	C452.365509,258.990112 451.659302,240.325287 447.839966,222.118607 
	C443.934875,203.503052 437.964325,185.483490 429.149567,168.522430 
	C417.454437,146.019150 401.819733,126.768883 382.737518,109.987114 
	C366.624176,95.816292 348.995300,84.367302 329.304688,76.097092 
	C300.259186,63.897770 270.117065,58.548996 238.481461,60.828400 
	C218.616669,62.259693 199.514069,66.015656 180.826614,72.876732 
	C156.267426,81.893593 134.631760,95.519936 115.497009,113.114243 
	C95.627251,131.384369 79.906731,152.700241 68.716240,177.460297 
	C57.603863,202.047516 51.890991,227.695709 51.000164,255.529419 
z"/>
<path fill="#00C2CB" opacity="1.000000" stroke="none" 
	d="
M51.000099,255.035675 
	C51.890991,227.695709 57.603863,202.047516 68.716240,177.460297 
	C79.906731,152.700241 95.627251,131.384369 115.497009,113.114243 
	C134.631760,95.519936 156.267426,81.893593 180.826614,72.876732 
	C199.514069,66.015656 218.616669,62.259693 238.481461,60.828400 
	C270.117065,58.548996 300.259186,63.897770 329.304688,76.097092 
	C348.995300,84.367302 366.624176,95.816292 382.737518,109.987114 
	C401.819733,126.768883 417.454437,146.019150 429.149567,168.522430 
	C437.964325,185.483490 443.934875,203.503052 447.839966,222.118607 
	C451.659302,240.325287 452.365509,258.990112 450.742584,277.393829 
	C448.708008,300.465729 442.886627,322.803406 433.091492,344.040894 
	C426.103180,359.192688 417.665649,373.423065 407.087189,386.200348 
	C394.871002,400.955841 380.746582,413.829132 365.109680,425.009460 
	C348.704987,436.738739 330.590668,445.239929 311.645264,451.510773 
	C299.856903,455.412689 287.221100,456.925293 274.866364,458.884277 
	C266.786957,460.165344 258.514374,461.029144 250.355377,460.849518 
	C230.048325,460.402435 209.810074,457.855011 190.526901,451.632599 
	C166.110992,443.753967 143.470108,431.794861 123.773735,415.112000 
	C105.626518,399.741333 90.191177,381.980774 77.947655,361.383575 
	C66.417305,341.986145 58.684845,321.136871 54.473381,299.256866 
	C51.726700,284.986908 52.051346,270.125732 51.000099,255.035675 
M422.946594,335.288086 
	C423.989929,332.390198 424.959442,329.463196 426.088745,326.599213 
	C432.645538,309.971100 436.778168,292.632538 437.717926,274.919220 
	C438.457764,260.973419 437.048492,246.862701 435.905243,232.881546 
	C434.649841,217.528748 430.150116,202.762604 424.089081,188.764847 
	C412.725464,162.520950 397.036407,139.290649 375.066467,120.309654 
	C355.127655,103.083466 333.074188,90.057739 308.092468,82.009018 
	C285.753723,74.811813 262.916260,72.222214 239.364227,73.787933 
	C221.614120,74.967926 204.495285,78.050232 187.796585,84.038567 
	C162.352020,93.163269 140.034531,107.333809 120.631851,125.991760 
	C107.826523,138.305588 97.295921,152.380722 88.328720,167.872437 
	C74.415825,191.908340 66.631393,217.790421 64.300339,245.089554 
	C62.932865,261.104095 63.710983,277.297028 66.732994,293.441406 
	C71.384216,318.289520 80.261894,341.249359 93.955269,362.286591 
	C104.015404,377.742035 115.989670,391.756927 130.220337,403.607849 
	C136.351196,408.713501 142.864151,413.425171 149.548431,417.787323 
	C161.673355,425.700043 174.663849,431.887024 188.340698,436.777618 
	C203.774429,442.296417 219.644135,445.589233 235.891525,446.884033 
	C244.197418,447.545929 252.610565,447.266663 260.954956,446.921936 
	C268.644623,446.604309 276.440918,446.307159 283.957520,444.822723 
	C310.658875,439.549377 335.627808,429.928680 357.993347,414.037872 
	C371.748108,404.265076 384.355255,393.216278 395.092987,380.248474 
	C406.241821,366.784210 415.063843,351.754120 422.946594,335.288086 
z"/>
<path fill="#000000" opacity="1.000000" stroke="none" 
	d="
M422.746643,335.621216 
	C415.063843,351.754120 406.241821,366.784210 395.092987,380.248474 
	C384.355255,393.216278 371.748108,404.265076 357.993347,414.037872 
	C335.627808,429.928680 310.658875,439.549377 283.957520,444.822723 
	C276.440918,446.307159 268.644623,446.604309 260.954956,446.921936 
	C252.610565,447.266663 244.197418,447.545929 235.891525,446.884033 
	C219.644135,445.589233 203.774429,442.296417 188.340698,436.777618 
	C174.663849,431.887024 161.673355,425.700043 149.548431,417.787323 
	C142.864151,413.425171 136.351196,408.713501 130.220337,403.607849 
	C115.989670,391.756927 104.015404,377.742035 93.955269,362.286591 
	C80.261894,341.249359 71.384216,318.289520 66.732994,293.441406 
	C63.710983,277.297028 62.932865,261.104095 64.300339,245.089554 
	C66.631393,217.790421 74.415825,191.908340 88.328720,167.872437 
	C97.295921,152.380722 107.826523,138.305588 120.631851,125.991760 
	C140.034531,107.333809 162.352020,93.163269 187.796585,84.038567 
	C204.495285,78.050232 221.614120,74.967926 239.364227,73.787933 
	C262.916260,72.222214 285.753723,74.811813 308.092468,82.009018 
	C333.074188,90.057739 355.127655,103.083466 375.066467,120.309654 
	C397.036407,139.290649 412.725464,162.520950 424.089081,188.764847 
	C430.150116,202.762604 434.649841,217.528748 435.905243,232.881546 
	C437.048492,246.862701 438.457764,260.973419 437.717926,274.919220 
	C436.778168,292.632538 432.645538,309.971100 426.088745,326.599213 
	C424.959442,329.463196 423.989929,332.390198 422.746643,335.621216 
M292.844696,349.380432 
	C295.785309,349.604156 298.725952,349.827850 301.666565,350.051544 
	C301.723389,349.625122 301.780212,349.198730 301.837036,348.772308 
	C300.731171,348.326080 299.625305,347.879822 299.467316,347.816071 
	C300.169525,344.844299 301.152008,342.355316 301.075989,339.899139 
	C301.055573,339.239838 297.803650,338.215912 296.049530,338.244324 
	C294.947662,338.262207 293.872528,339.928070 292.785400,340.854553 
	C293.061157,341.209320 293.336914,341.564117 293.612640,341.918884 
	C294.947968,341.703369 296.283295,341.487823 299.268677,341.005951 
	C296.198761,344.396667 294.098816,346.716064 291.591797,348.321594 
	C290.567169,348.096313 289.542542,347.871033 289.960449,347.962921 
	C289.960449,344.573517 291.050903,340.953949 289.708038,339.232178 
	C287.629608,336.567200 284.530121,338.078369 281.590698,341.308777 
	C284.279358,341.308777 286.043121,341.308777 288.774536,341.308777 
	C285.979309,344.459229 283.915894,346.784882 281.852478,349.110535 
	C282.096466,349.521484 282.340454,349.932434 282.584473,350.343384 
	C285.723938,349.893555 288.863403,349.443726 292.844696,349.380432 
M280.001160,175.927429 
	C280.001160,171.004883 280.001160,166.082336 280.001160,161.246567 
	C273.975830,161.246567 268.702026,161.246567 263.295105,161.246567 
	C263.295105,166.554321 263.295105,171.611542 263.295105,177.151901 
	C268.055542,177.151901 272.524048,177.151901 276.997986,178.062225 
	C276.997986,182.963989 276.997986,187.865738 276.997986,192.683624 
	C282.678253,192.683624 287.721680,192.683624 292.686066,192.683624 
	C292.686066,187.317413 292.686066,182.271698 292.686066,176.842804 
	C288.253754,176.842804 284.132935,176.842804 280.001160,175.927429 
M246.500000,251.000122 
	C259.332977,251.000122 272.165985,251.000198 284.998962,251.000076 
	C295.665375,251.000000 306.331879,250.973160 316.998138,251.013046 
	C321.044220,251.028183 323.187927,248.689087 324.932037,245.381241 
	C326.501434,242.404724 325.962982,240.353592 323.633362,237.949356 
	C320.096039,234.298721 317.102783,230.127121 313.744446,226.294235 
	C311.921753,224.213989 310.745667,222.295227 310.874969,219.189423 
	C311.232849,210.594833 310.998932,201.975616 310.998932,193.383057 
	C307.667419,193.383057 304.954651,193.383057 301.999023,193.383057 
	C301.999023,199.414154 302.079132,205.067245 301.977020,210.717056 
	C301.869904,216.642258 300.471100,217.991882 294.657562,217.994141 
	C260.825043,218.007278 226.992355,217.952194 193.160172,218.058899 
	C188.695862,218.072968 186.906601,216.515091 186.939056,211.952988 
	C187.080124,192.121140 186.990067,172.287689 187.005219,152.454834 
	C187.009689,146.613281 187.655914,146.006592 193.751083,146.003021 
	C211.250671,145.992737 228.750244,145.999649 246.249832,145.999802 
	C248.031982,145.999817 249.814133,145.999802 251.643250,145.999802 
	C251.643250,143.381241 251.643250,141.338486 251.643250,139.006073 
	C228.645203,139.006073 206.000137,138.922165 183.356812,139.082916 
	C179.250137,139.112076 176.897598,141.345291 176.930984,146.069260 
	C177.087601,168.234299 176.813904,190.403534 177.111267,212.565689 
	C177.203842,219.465546 176.925140,225.685104 171.215958,230.627823 
	C168.915131,232.619766 167.659882,235.795654 165.418732,237.885818 
	C162.020889,241.054733 162.786499,243.700043 165.268692,246.882233 
	C167.434738,249.659088 169.811737,251.087906 173.502090,251.067673 
	C197.500793,250.936081 221.500580,251.000122 246.500000,251.000122 
M307.999969,126.507828 
	C307.999969,132.922989 307.999969,139.338150 307.999969,145.692352 
	C318.992401,145.692352 329.368073,145.692352 339.692871,145.692352 
	C339.692871,134.674332 339.692871,123.966133 339.692871,113.308403 
	C329.007324,113.308403 318.631744,113.308403 307.999969,113.308403 
	C307.999969,117.578110 307.999969,121.544754 307.999969,126.507828 
M298.000000,177.480240 
	C298.000000,180.918259 298.000000,184.356262 298.000000,187.719086 
	C307.300751,187.719086 316.037781,187.719086 324.718597,187.719086 
	C324.718597,178.698257 324.718597,169.961182 324.718597,161.281891 
	C315.697235,161.281891 306.960144,161.281891 298.000000,161.281891 
	C298.000000,166.536652 298.000000,171.511414 298.000000,177.480240 
M332.016266,302.724091 
	C335.153320,301.937073 338.290375,301.150085 342.163391,300.178436 
	C342.163391,304.641296 342.163391,307.716248 342.163391,310.630432 
	C345.045868,310.630432 347.434296,310.630432 349.612610,310.630432 
	C349.612610,301.212158 349.612610,292.166718 349.612610,283.246765 
	C346.949768,283.246765 344.677094,283.246765 341.921906,283.246765 
	C341.921906,287.212555 341.921906,290.954712 341.921906,294.677979 
	C338.368652,294.677979 335.312714,294.677979 331.801270,294.677979 
	C331.801270,290.624939 331.801270,286.889435 331.801270,283.361267 
	C328.597687,283.361267 325.870270,283.361267 323.381775,283.361267 
	C323.381775,292.777924 323.381775,301.830444 323.381775,310.757294 
	C326.375916,310.757294 328.986633,310.757294 332.001831,310.757294 
	C332.001831,308.233063 332.001831,305.944885 332.016266,302.724091 
M298.389832,158.000427 
	C300.154266,158.000427 301.918732,158.000427 303.715546,158.000427 
	C303.715546,150.061829 303.715546,142.689240 303.715546,135.286240 
	C296.056183,135.286240 288.683563,135.286240 281.287292,135.286240 
	C281.287292,142.947922 281.287292,150.320740 281.287292,158.000427 
	C286.851868,158.000427 292.134186,158.000427 298.389832,158.000427 
M198.945709,310.985687 
	C201.189575,310.985687 203.433426,310.985687 206.251404,310.985687 
	C202.518005,301.950623 199.180298,293.615082 195.556854,285.405701 
	C195.060745,284.281738 193.091278,283.071014 191.891968,283.155121 
	C189.708084,283.308350 186.350037,283.788727 185.648941,285.205200 
	C181.542099,293.502686 178.062851,302.110809 174.201111,311.007507 
	C178.684464,310.682098 183.326187,312.740021 185.189606,306.953369 
	C185.360352,306.423187 186.806198,306.180847 187.698303,306.026306 
	C192.285797,305.231781 196.043243,306.296967 198.945709,310.985687 
M282.421753,289.999847 
	C284.192780,289.999847 285.963776,289.999847 287.663635,289.999847 
	C287.663635,287.349579 287.663635,285.295166 287.663635,283.366028 
	C279.939148,283.366028 272.555664,283.366028 265.392761,283.366028 
	C265.392761,292.785400 265.392761,301.835358 265.392761,310.761963 
	C273.060150,310.761963 280.332428,310.761963 287.725586,310.761963 
	C287.725586,308.799347 287.725586,307.077545 287.725586,304.888367 
	C282.722321,304.888367 277.975220,304.888367 272.937347,304.888367 
	C273.084259,303.003876 273.192719,301.612640 273.336548,299.767395 
	C277.740356,299.767395 281.806549,299.767395 285.779358,299.767395 
	C285.779358,297.667419 285.779358,296.054535 285.779358,294.000183 
	C283.612183,294.000183 281.655487,294.000183 279.698761,294.000183 
	C277.577026,294.000183 275.455292,294.000183 273.333588,294.000183 
	C273.073456,293.475189 272.813324,292.950226 272.553192,292.425232 
	C273.694336,291.617188 274.739288,290.394073 276.000000,290.101807 
	C277.736542,289.699310 279.636108,290.000214 282.421753,289.999847 
M209.024628,304.400696 
	C209.024628,306.496948 209.024628,308.593201 209.024628,311.001038 
	C211.059174,311.001038 212.373520,311.030396 213.685944,310.992767 
	C214.975006,310.955841 216.262115,310.850830 217.670975,310.768677 
	C217.923416,308.402344 218.144058,306.334259 218.394943,303.982544 
	C220.523804,303.982544 222.356705,304.152649 224.147690,303.950775 
	C229.589691,303.337372 233.612427,299.451172 233.996384,294.623230 
	C234.461197,288.778595 231.949188,285.079346 225.649734,283.960419 
	C220.379684,283.024353 214.934784,283.072662 209.024658,282.645874 
	C209.024658,290.179626 209.024658,296.800842 209.024628,304.400696 
M300.975861,310.976135 
	C307.931549,312.579437 314.408936,312.545135 319.039062,306.154938 
	C316.817963,302.090332 314.204559,301.109375 310.523651,303.764038 
	C306.980591,306.319305 303.636444,304.409882 302.345154,301.477142 
	C301.218536,298.918518 301.346954,294.999420 302.548340,292.447662 
	C303.782959,289.825256 307.441467,288.668610 310.213501,290.815308 
	C315.103668,294.602356 317.373932,292.518066 318.941315,287.542938 
	C313.385986,282.278046 306.892273,281.582825 300.145721,284.495880 
	C295.388336,286.550110 292.547546,290.552582 292.006683,295.893860 
	C291.315094,302.723419 294.460541,307.450043 300.975861,310.976135 
M245.682877,310.981049 
	C247.965042,310.981049 250.247208,310.981049 252.993668,310.981049 
	C252.993668,303.868866 252.993668,297.142395 252.993668,289.960968 
	C255.852127,289.960968 258.248749,289.960968 260.708588,289.960968 
	C260.708588,287.429443 260.708588,285.377106 260.708588,283.296021 
	C252.366516,283.296021 244.318375,283.296021 236.327850,283.296021 
	C236.327850,285.655823 236.327850,287.714264 236.327850,289.826233 
	C239.046707,289.972900 241.441727,290.102112 243.587402,290.217865 
	C243.994995,297.451782 244.372955,304.159760 245.682877,310.981049 
M167.360672,310.999847 
	C169.133835,310.999847 170.906982,310.999847 172.752350,310.999847 
	C172.752350,308.733948 172.752350,307.132843 172.752350,304.924011 
	C168.806198,304.924011 165.071579,304.924011 160.922516,304.924011 
	C160.922516,297.392212 160.922516,290.458801 160.922516,283.361206 
	C158.095795,283.361206 155.726761,283.361206 153.272568,283.361206 
	C153.272568,292.648102 153.272568,301.569275 153.272568,310.999878 
	C157.820160,310.999878 162.110626,310.999878 167.360672,310.999847 
M294.478027,115.000900 
	C291.720947,115.000900 288.963867,115.000900 286.397400,115.000900 
	C286.397400,120.772476 286.397400,125.830635 286.397400,130.730850 
	C291.736023,130.730850 296.673035,130.730850 301.680847,130.730850 
	C301.680847,125.404633 301.680847,120.352737 301.680847,115.000900 
	C299.394379,115.000900 297.421173,115.000900 294.478027,115.000900 
M258.000000,154.358856 
	C258.174408,155.972702 257.144196,158.177231 260.371246,158.044357 
	C264.809387,157.861633 269.260681,157.998611 273.755463,157.998611 
	C273.755463,152.441727 273.755463,147.369507 273.755463,142.247681 
	C268.435150,142.247681 263.362823,142.247681 258.000000,142.247681 
	C258.000000,146.123779 258.000000,149.759033 258.000000,154.358856 
M233.018555,184.750351 
	C233.018555,189.033585 233.018555,193.316833 233.018555,197.699219 
	C238.237274,197.699219 242.959808,197.699219 247.646317,197.699219 
	C247.646317,192.665054 247.646317,187.941010 247.646317,182.626724 
	C242.549683,183.041016 237.839859,183.423859 233.018555,184.750351 
M262.433472,181.999908 
	C259.690002,181.999908 256.946503,181.999908 254.334656,181.999908 
	C254.334656,186.706757 254.334656,190.748779 254.334656,194.665085 
	C259.047485,194.665085 263.421478,194.665085 267.836426,194.665085 
	C267.836426,190.404572 267.836426,186.480789 267.836426,182.237732 
	C266.262390,182.153442 264.829254,182.076691 262.433472,181.999908 
M250.413376,180.000092 
	C251.846252,179.923401 253.279114,179.846710 254.715363,179.769836 
	C254.715363,175.386795 254.715363,171.341614 254.715363,167.288895 
	C250.379883,167.288895 246.334763,167.288895 242.291290,167.288895 
	C242.291290,171.627823 242.291290,175.673157 242.291290,180.000076 
	C244.871201,180.000076 247.163177,180.000076 250.413376,180.000092 
M276.419312,338.032562 
	C275.041595,338.478210 272.921600,338.530670 272.435394,339.448547 
	C271.303406,341.585663 270.192719,344.270630 270.570343,346.477417 
	C270.811829,347.888641 273.625610,349.530945 275.468109,349.793579 
	C277.064880,350.021240 280.048096,348.822357 280.445129,347.608521 
	C281.627380,343.993805 281.935547,340.026001 276.419312,338.032562 
M226.008118,340.302460 
	C225.952621,341.335999 225.897141,342.369537 225.805832,344.069977 
	C223.185181,341.500397 221.184952,339.539124 218.495117,336.901703 
	C218.495117,342.236176 218.495117,346.039581 218.495117,349.842987 
	C218.950424,349.954620 219.405731,350.066284 219.861038,350.177917 
	C220.422531,348.671997 220.984024,347.166046 221.390045,346.077087 
	C223.445755,347.493011 225.666077,349.022308 228.988541,351.310760 
	C228.988541,346.383820 229.116226,343.407288 228.948029,340.447601 
	C228.814301,338.094482 228.058533,336.579773 226.008118,340.302460 
M208.158142,341.872955 
	C208.552170,341.590698 208.946198,341.308411 209.340195,341.026154 
	C207.965591,340.023193 206.496902,338.106354 205.238846,338.235840 
	C203.443924,338.420593 201.656540,339.949890 200.235168,341.295074 
	C199.985687,341.531219 201.329117,343.907013 202.336456,344.881653 
	C203.277054,345.791718 204.749100,346.152466 205.987228,346.755005 
	C205.789764,347.136841 205.592300,347.518677 205.394836,347.900513 
	C203.807434,347.308044 202.220016,346.715607 200.632614,346.123138 
	C200.321915,346.505737 200.011200,346.888306 199.700485,347.270874 
	C200.736679,348.174988 201.772308,349.829376 202.809158,349.830139 
	C205.112488,349.831818 208.811859,349.703674 209.469376,348.390411 
	C211.838867,343.657837 205.839203,344.122040 203.293915,340.821167 
	C205.442734,341.332550 206.441055,341.570129 208.158142,341.872955 
M252.722794,348.705902 
	C250.868668,348.231750 249.014557,347.757568 246.211761,347.040802 
	C249.292999,346.089569 251.240387,345.488403 253.187775,344.887238 
	C253.075607,344.419220 252.963440,343.951202 252.851273,343.483185 
	C250.962860,343.134644 249.074448,342.786133 247.186035,342.437592 
	C247.212738,342.126892 247.239426,341.816193 247.266129,341.505493 
	C249.162186,341.144623 251.058243,340.783752 252.954300,340.422882 
	C252.966431,339.767975 252.978561,339.113098 252.990692,338.458191 
	C250.154037,338.288971 247.317383,338.119751 244.390778,337.945129 
	C244.390778,342.381104 244.390778,346.079987 244.390778,350.172211 
	C247.415436,349.941956 250.024887,349.743317 252.722794,348.705902 
M237.537216,347.800812 
	C236.380264,346.637817 234.143326,345.363586 234.249741,344.330780 
	C234.762939,339.350189 239.218506,342.261505 241.989288,341.370239 
	C238.437393,337.360901 234.728867,336.705627 232.548615,340.335602 
	C231.284332,342.440582 231.510239,346.343567 232.611572,348.721375 
	C233.796677,351.280090 239.445496,350.395355 242.169678,347.366730 
	C240.565506,347.366730 239.368027,347.366730 237.537216,347.800812 
M267.765045,349.941437 
	C267.313812,349.001831 266.862579,348.062225 266.419617,347.139832 
	C267.012604,345.200012 268.156494,342.725708 268.269531,340.205139 
	C268.298126,339.567932 265.052643,338.299072 263.280518,338.238983 
	C262.127563,338.199829 260.918304,339.821594 259.734253,340.699280 
	C259.968231,341.087128 260.202209,341.475006 260.436188,341.862885 
	C261.865479,341.699524 263.294769,341.536163 265.500336,341.284119 
	C263.196411,344.283447 261.387756,346.638062 258.809235,349.994873 
	C262.679993,349.994873 264.813995,349.994873 267.765045,349.941437 
M214.996643,347.185272 
	C214.306351,344.199860 216.488159,340.449524 212.695587,338.191742 
	C212.021896,341.540649 211.959579,344.787018 212.076584,348.026855 
	C212.098923,348.644958 212.829147,349.237518 213.232788,349.841858 
	C213.814453,349.256531 214.396103,348.671173 214.996643,347.185272 
z"/>
<path fill="#03989E" opacity="1.000000" stroke="none" 
	d="
M246.000000,251.000122 
	C221.500580,251.000122 197.500793,250.936081 173.502090,251.067673 
	C169.811737,251.087906 167.434738,249.659088 165.268692,246.882233 
	C162.786499,243.700043 162.020889,241.054733 165.418732,237.885818 
	C167.659882,235.795654 168.915131,232.619766 171.215958,230.627823 
	C176.925140,225.685104 177.203842,219.465546 177.111267,212.565689 
	C176.813904,190.403534 177.087601,168.234299 176.930984,146.069260 
	C176.897598,141.345291 179.250137,139.112076 183.356812,139.082916 
	C206.000137,138.922165 228.645203,139.006073 251.643250,139.006073 
	C251.643250,141.338486 251.643250,143.381241 251.643250,145.999802 
	C249.814133,145.999802 248.031982,145.999817 246.249832,145.999802 
	C228.750244,145.999649 211.250671,145.992737 193.751083,146.003021 
	C187.655914,146.006592 187.009689,146.613281 187.005219,152.454834 
	C186.990067,172.287689 187.080124,192.121140 186.939056,211.952988 
	C186.906601,216.515091 188.695862,218.072968 193.160172,218.058899 
	C226.992355,217.952194 260.825043,218.007278 294.657562,217.994141 
	C300.471100,217.991882 301.869904,216.642258 301.977020,210.717056 
	C302.079132,205.067245 301.999023,199.414154 301.999023,193.383057 
	C304.954651,193.383057 307.667419,193.383057 310.998932,193.383057 
	C310.998932,201.975616 311.232849,210.594833 310.874969,219.189423 
	C310.745667,222.295227 311.921753,224.213989 313.744446,226.294235 
	C317.102783,230.127121 320.096039,234.298721 323.633362,237.949356 
	C325.962982,240.353592 326.501434,242.404724 324.932037,245.381241 
	C323.187927,248.689087 321.044220,251.028183 316.998138,251.013046 
	C306.331879,250.973160 295.665375,251.000000 284.998962,251.000076 
	C272.165985,251.000198 259.332977,251.000122 246.000000,251.000122 
M251.496399,241.001694 
	C256.763855,241.001694 262.031311,241.001694 267.529999,241.001694 
	C266.731506,237.183151 264.733795,235.886887 261.153137,235.940002 
	C250.036377,236.104935 238.914520,236.089096 227.797089,235.948853 
	C224.243790,235.904037 222.150909,237.118301 221.584381,241.001694 
	C231.305359,241.001694 240.901489,241.001694 251.496399,241.001694 
M244.501328,247.999878 
	C248.941650,247.333588 253.919189,249.655197 257.787872,245.396118 
	C248.876358,243.715332 240.025452,243.124435 231.226074,245.127457 
	C231.206955,245.929916 231.187851,246.732391 231.168732,247.534851 
	C235.287384,247.689865 239.406036,247.844864 244.501328,247.999878 
z"/>
<path fill="#3CB9FC" opacity="1.000000" stroke="none" 
	d="
M307.999969,126.009613 
	C307.999969,121.544754 307.999969,117.578110 307.999969,113.308403 
	C318.631744,113.308403 329.007324,113.308403 339.692871,113.308403 
	C339.692871,123.966133 339.692871,134.674332 339.692871,145.692352 
	C329.368073,145.692352 318.992401,145.692352 307.999969,145.692352 
	C307.999969,139.338150 307.999969,132.922989 307.999969,126.009613 
z"/>
<path fill="#FFFFFF" opacity="1.000000" stroke="none" 
	d="
M298.000000,176.983215 
	C298.000000,171.511414 298.000000,166.536652 298.000000,161.281891 
	C306.960144,161.281891 315.697235,161.281891 324.718597,161.281891 
	C324.718597,169.961182 324.718597,178.698257 324.718597,187.719086 
	C316.037781,187.719086 307.300751,187.719086 298.000000,187.719086 
	C298.000000,184.356262 298.000000,180.918259 298.000000,176.983215 
z"/>
<path fill="#00C2CB" opacity="1.000000" stroke="none" 
	d="
M332.009033,303.190369 
	C332.001831,305.944885 332.001831,308.233063 332.001831,310.757294 
	C328.986633,310.757294 326.375916,310.757294 323.381775,310.757294 
	C323.381775,301.830444 323.381775,292.777924 323.381775,283.361267 
	C325.870270,283.361267 328.597687,283.361267 331.801270,283.361267 
	C331.801270,286.889435 331.801270,290.624939 331.801270,294.677979 
	C335.312714,294.677979 338.368652,294.677979 341.921906,294.677979 
	C341.921906,290.954712 341.921906,287.212555 341.921906,283.246765 
	C344.677094,283.246765 346.949768,283.246765 349.612610,283.246765 
	C349.612610,292.166718 349.612610,301.212158 349.612610,310.630432 
	C347.434296,310.630432 345.045868,310.630432 342.163391,310.630432 
	C342.163391,307.716248 342.163391,304.641296 342.163391,300.178436 
	C338.290375,301.150085 335.153320,301.937073 332.009033,303.190369 
z"/>
<path fill="#B537F2" opacity="1.000000" stroke="none" 
	d="
M297.903198,158.000427 
	C292.134186,158.000427 286.851868,158.000427 281.287292,158.000427 
	C281.287292,150.320740 281.287292,142.947922 281.287292,135.286240 
	C288.683563,135.286240 296.056183,135.286240 303.715546,135.286240 
	C303.715546,142.689240 303.715546,150.061829 303.715546,158.000427 
	C301.918732,158.000427 300.154266,158.000427 297.903198,158.000427 
z"/>
<path fill="#004AAD" opacity="1.000000" stroke="none" 
	d="
M198.527664,310.950134 
	C196.043243,306.296967 192.285797,305.231781 187.698303,306.026306 
	C186.806198,306.180847 185.360352,306.423187 185.189606,306.953369 
	C183.326187,312.740021 178.684464,310.682098 174.201111,311.007507 
	C178.062851,302.110809 181.542099,293.502686 185.648941,285.205200 
	C186.350037,283.788727 189.708084,283.308350 191.891968,283.155121 
	C193.091278,283.071014 195.060745,284.281738 195.556854,285.405701 
	C199.180298,293.615082 202.518005,301.950623 206.251404,310.985687 
	C203.433426,310.985687 201.189575,310.985687 198.527664,310.950134 
z"/>
<path fill="#00C2CB" opacity="1.000000" stroke="none" 
	d="
M281.943787,289.999817 
	C279.636108,290.000214 277.736542,289.699310 276.000000,290.101807 
	C274.739288,290.394073 273.694336,291.617188 272.553192,292.425232 
	C272.813324,292.950226 273.073456,293.475189 273.333588,294.000183 
	C275.455292,294.000183 277.577026,294.000183 279.698761,294.000183 
	C281.655487,294.000183 283.612183,294.000183 285.779358,294.000183 
	C285.779358,296.054535 285.779358,297.667419 285.779358,299.767395 
	C281.806549,299.767395 277.740356,299.767395 273.336548,299.767395 
	C273.192719,301.612640 273.084259,303.003876 272.937347,304.888367 
	C277.975220,304.888367 282.722321,304.888367 287.725586,304.888367 
	C287.725586,307.077545 287.725586,308.799347 287.725586,310.761963 
	C280.332428,310.761963 273.060150,310.761963 265.392761,310.761963 
	C265.392761,301.835358 265.392761,292.785400 265.392761,283.366028 
	C272.555664,283.366028 279.939148,283.366028 287.663635,283.366028 
	C287.663635,285.295166 287.663635,287.349579 287.663635,289.999847 
	C285.963776,289.999847 284.192780,289.999847 281.943787,289.999817 
z"/>
<path fill="#004AAC" opacity="1.000000" stroke="none" 
	d="
M209.024643,303.911377 
	C209.024658,296.800842 209.024658,290.179626 209.024658,282.645874 
	C214.934784,283.072662 220.379684,283.024353 225.649734,283.960419 
	C231.949188,285.079346 234.461197,288.778595 233.996384,294.623230 
	C233.612427,299.451172 229.589691,303.337372 224.147690,303.950775 
	C222.356705,304.152649 220.523804,303.982544 218.394943,303.982544 
	C218.144058,306.334259 217.923416,308.402344 217.670975,310.768677 
	C216.262115,310.850830 214.975006,310.955841 213.685944,310.992767 
	C212.373520,311.030396 211.059174,311.001038 209.024628,311.001038 
	C209.024628,308.593201 209.024628,306.496948 209.024643,303.911377 
M221.227081,290.007477 
	C215.174332,290.269440 218.931885,294.261017 218.310135,296.587677 
	C218.634598,297.007019 218.959061,297.426331 219.283524,297.845642 
	C221.480743,296.636383 223.677948,295.427094 225.875168,294.217804 
	C224.605072,292.816925 223.334976,291.416046 221.227081,290.007477 
z"/>
<path fill="#00C3CC" opacity="1.000000" stroke="none" 
	d="
M300.591675,310.852966 
	C294.460541,307.450043 291.315094,302.723419 292.006683,295.893860 
	C292.547546,290.552582 295.388336,286.550110 300.145721,284.495880 
	C306.892273,281.582825 313.385986,282.278046 318.941315,287.542938 
	C317.373932,292.518066 315.103668,294.602356 310.213501,290.815308 
	C307.441467,288.668610 303.782959,289.825256 302.548340,292.447662 
	C301.346954,294.999420 301.218536,298.918518 302.345154,301.477142 
	C303.636444,304.409882 306.980591,306.319305 310.523651,303.764038 
	C314.204559,301.109375 316.817963,302.090332 319.039062,306.154938 
	C314.408936,312.545135 307.931549,312.579437 300.591675,310.852966 
z"/>
<path fill="#00C2CB" opacity="1.000000" stroke="none" 
	d="
M245.216888,310.924377 
	C244.372955,304.159760 243.994995,297.451782 243.587402,290.217865 
	C241.441727,290.102112 239.046707,289.972900 236.327850,289.826233 
	C236.327850,287.714264 236.327850,285.655823 236.327850,283.296021 
	C244.318375,283.296021 252.366516,283.296021 260.708588,283.296021 
	C260.708588,285.377106 260.708588,287.429443 260.708588,289.960968 
	C258.248749,289.960968 255.852127,289.960968 252.993668,289.960968 
	C252.993668,297.142395 252.993668,303.868866 252.993668,310.981049 
	C250.247208,310.981049 247.965042,310.981049 245.216888,310.924377 
z"/>
<path fill="#004AAD" opacity="1.000000" stroke="none" 
	d="
M166.880890,310.999878 
	C162.110626,310.999878 157.820160,310.999878 153.272568,310.999878 
	C153.272568,301.569275 153.272568,292.648102 153.272568,283.361206 
	C155.726761,283.361206 158.095795,283.361206 160.922516,283.361206 
	C160.922516,290.458801 160.922516,297.392212 160.922516,304.924011 
	C165.071579,304.924011 168.806198,304.924011 172.752350,304.924011 
	C172.752350,307.132843 172.752350,308.733948 172.752350,310.999847 
	C170.906982,310.999847 169.133835,310.999847 166.880890,310.999878 
z"/>
<path fill="#8A2BE1" opacity="1.000000" stroke="none" 
	d="
M276.992554,177.151901 
	C272.524048,177.151901 268.055542,177.151901 263.295105,177.151901 
	C263.295105,171.611542 263.295105,166.554321 263.295105,161.246567 
	C268.702026,161.246567 273.975830,161.246567 280.001160,161.246567 
	C280.001160,166.082336 280.001160,171.004883 279.631775,176.444733 
	C278.505798,177.025330 277.749176,177.088623 276.992554,177.151901 
z"/>
<path fill="#8A2BE1" opacity="1.000000" stroke="none" 
	d="
M294.962982,115.000900 
	C297.421173,115.000900 299.394379,115.000900 301.680847,115.000900 
	C301.680847,120.352737 301.680847,125.404633 301.680847,130.730850 
	C296.673035,130.730850 291.736023,130.730850 286.397400,130.730850 
	C286.397400,125.830635 286.397400,120.772476 286.397400,115.000900 
	C288.963867,115.000900 291.720947,115.000900 294.962982,115.000900 
z"/>
<path fill="#3CB9FC" opacity="1.000000" stroke="none" 
	d="
M276.995270,177.607056 
	C277.749176,177.088623 278.505798,177.025330 279.637268,176.902420 
	C284.132935,176.842804 288.253754,176.842804 292.686066,176.842804 
	C292.686066,182.271698 292.686066,187.317413 292.686066,192.683624 
	C287.721680,192.683624 282.678253,192.683624 276.997986,192.683624 
	C276.997986,187.865738 276.997986,182.963989 276.995270,177.607056 
z"/>
<path fill="#FFFFFF" opacity="1.000000" stroke="none" 
	d="
M258.000000,153.876572 
	C258.000000,149.759033 258.000000,146.123779 258.000000,142.247681 
	C263.362823,142.247681 268.435150,142.247681 273.755463,142.247681 
	C273.755463,147.369507 273.755463,152.441727 273.755463,157.998611 
	C269.260681,157.998611 264.809387,157.861633 260.371246,158.044357 
	C257.144196,158.177231 258.174408,155.972702 258.000000,153.876572 
z"/>
<path fill="#8A2BE1" opacity="1.000000" stroke="none" 
	d="
M233.074280,184.278534 
	C237.839859,183.423859 242.549683,183.041016 247.646317,182.626724 
	C247.646317,187.941010 247.646317,192.665054 247.646317,197.699219 
	C242.959808,197.699219 238.237274,197.699219 233.018555,197.699219 
	C233.018555,193.316833 233.018555,189.033585 233.074280,184.278534 
z"/>
<path fill="#B537F2" opacity="1.000000" stroke="none" 
	d="
M262.914795,181.999924 
	C264.829254,182.076691 266.262390,182.153442 267.836426,182.237732 
	C267.836426,186.480789 267.836426,190.404572 267.836426,194.665085 
	C263.421478,194.665085 259.047485,194.665085 254.334656,194.665085 
	C254.334656,190.748779 254.334656,186.706757 254.334656,181.999908 
	C256.946503,181.999908 259.690002,181.999908 262.914795,181.999924 
z"/>
<path fill="#3CB9FC" opacity="1.000000" stroke="none" 
	d="
M249.934265,180.000092 
	C247.163177,180.000076 244.871201,180.000076 242.291290,180.000076 
	C242.291290,175.673157 242.291290,171.627823 242.291290,167.288895 
	C246.334763,167.288895 250.379883,167.288895 254.715363,167.288895 
	C254.715363,171.341614 254.715363,175.386795 254.715363,179.769836 
	C253.279114,179.846710 251.846252,179.923401 249.934265,180.000092 
z"/>
<path fill="#0049AC" opacity="1.000000" stroke="none" 
	d="
M276.808868,338.092407 
	C281.935547,340.026001 281.627380,343.993805 280.445129,347.608521 
	C280.048096,348.822357 277.064880,350.021240 275.468109,349.793579 
	C273.625610,349.530945 270.811829,347.888641 270.570343,346.477417 
	C270.192719,344.270630 271.303406,341.585663 272.435394,339.448547 
	C272.921600,338.530670 275.041595,338.478210 276.808868,338.092407 
z"/>
<path fill="#004AAC" opacity="1.000000" stroke="none" 
	d="
M226.027069,339.905579 
	C228.058533,336.579773 228.814301,338.094482 228.948029,340.447601 
	C229.116226,343.407288 228.988541,346.383820 228.988541,351.310760 
	C225.666077,349.022308 223.445755,347.493011 221.390045,346.077087 
	C220.984024,347.166046 220.422531,348.671997 219.861038,350.177917 
	C219.405731,350.066284 218.950424,349.954620 218.495117,349.842987 
	C218.495117,346.039581 218.495117,342.236176 218.495117,336.901703 
	C221.184952,339.539124 223.185181,341.500397 225.805832,344.069977 
	C225.897141,342.369537 225.952621,341.335999 226.027069,339.905579 
z"/>
<path fill="#004BAB" opacity="1.000000" stroke="none" 
	d="
M207.798767,341.840332 
	C206.441055,341.570129 205.442734,341.332550 203.293915,340.821167 
	C205.839203,344.122040 211.838867,343.657837 209.469376,348.390411 
	C208.811859,349.703674 205.112488,349.831818 202.809158,349.830139 
	C201.772308,349.829376 200.736679,348.174988 199.700485,347.270874 
	C200.011200,346.888306 200.321915,346.505737 200.632614,346.123138 
	C202.220016,346.715607 203.807434,347.308044 205.394836,347.900513 
	C205.592300,347.518677 205.789764,347.136841 205.987228,346.755005 
	C204.749100,346.152466 203.277054,345.791718 202.336456,344.881653 
	C201.329117,343.907013 199.985687,341.531219 200.235168,341.295074 
	C201.656540,339.949890 203.443924,338.420593 205.238846,338.235840 
	C206.496902,338.106354 207.965591,340.023193 209.340210,341.026123 
	C208.946198,341.308411 208.552170,341.590698 207.798767,341.840332 
z"/>
<path fill="#004AAD" opacity="1.000000" stroke="none" 
	d="
M252.678574,349.125305 
	C250.024887,349.743317 247.415436,349.941956 244.390778,350.172211 
	C244.390778,346.079987 244.390778,342.381104 244.390778,337.945129 
	C247.317383,338.119751 250.154037,338.288971 252.990692,338.458191 
	C252.978561,339.113098 252.966431,339.767975 252.954300,340.422882 
	C251.058243,340.783752 249.162186,341.144623 247.266129,341.505493 
	C247.239426,341.816193 247.212738,342.126892 247.186035,342.437592 
	C249.074448,342.786133 250.962860,343.134644 252.851273,343.483185 
	C252.963440,343.951202 253.075607,344.419220 253.187775,344.887238 
	C251.240387,345.488403 249.292999,346.089569 246.211761,347.040802 
	C249.014557,347.757568 250.868668,348.231750 252.678574,349.125305 
z"/>
<path fill="#0049AB" opacity="1.000000" stroke="none" 
	d="
M237.853882,347.583771 
	C239.368027,347.366730 240.565506,347.366730 242.169678,347.366730 
	C239.445496,350.395355 233.796677,351.280090 232.611572,348.721375 
	C231.510239,346.343567 231.284332,342.440582 232.548615,340.335602 
	C234.728867,336.705627 238.437393,337.360901 241.989288,341.370239 
	C239.218506,342.261505 234.762939,339.350189 234.249741,344.330780 
	C234.143326,345.363586 236.380264,346.637817 237.853882,347.583771 
z"/>
<path fill="#004BAB" opacity="1.000000" stroke="none" 
	d="
M291.998871,349.035461 
	C294.098816,346.716064 296.198761,344.396667 299.268677,341.005951 
	C296.283295,341.487823 294.947968,341.703369 293.612640,341.918884 
	C293.336914,341.564117 293.061157,341.209320 292.785400,340.854553 
	C293.872528,339.928070 294.947662,338.262207 296.049530,338.244324 
	C297.803650,338.215912 301.055573,339.239838 301.075989,339.899139 
	C301.152008,342.355316 300.169525,344.844299 299.467316,347.816071 
	C299.625305,347.879822 300.731171,348.326080 301.837036,348.772308 
	C301.780212,349.198730 301.723389,349.625122 301.666565,350.051544 
	C298.725952,349.827850 295.785309,349.604156 292.418457,349.204346 
	C291.992218,349.028229 291.998871,349.035461 291.998871,349.035461 
z"/>
<path fill="#004AAB" opacity="1.000000" stroke="none" 
	d="
M267.356506,349.968140 
	C264.813995,349.994873 262.679993,349.994873 258.809235,349.994873 
	C261.387756,346.638062 263.196411,344.283447 265.500336,341.284119 
	C263.294769,341.536163 261.865479,341.699524 260.436188,341.862885 
	C260.202209,341.475006 259.968231,341.087128 259.734253,340.699280 
	C260.918304,339.821594 262.127563,338.199829 263.280518,338.238983 
	C265.052643,338.299072 268.298126,339.567932 268.269531,340.205139 
	C268.156494,342.725708 267.012604,345.200012 266.419617,347.139832 
	C266.862579,348.062225 267.313812,349.001831 267.356506,349.968140 
z"/>
<path fill="#004AAD" opacity="1.000000" stroke="none" 
	d="
M291.795349,348.678528 
	C291.998871,349.035461 291.992218,349.028229 291.997559,349.011047 
	C288.863403,349.443726 285.723938,349.893555 282.584473,350.343384 
	C282.340454,349.932434 282.096466,349.521484 281.852478,349.110535 
	C283.915894,346.784882 285.979309,344.459229 288.774536,341.308777 
	C286.043121,341.308777 284.279358,341.308777 281.590698,341.308777 
	C284.530121,338.078369 287.629608,336.567200 289.708038,339.232178 
	C291.050903,340.953949 289.960449,344.573517 289.960449,347.962921 
	C289.542542,347.871033 290.567169,348.096313 291.795349,348.678528 
z"/>
<path fill="#004AAD" opacity="1.000000" stroke="none" 
	d="
M214.987213,347.635559 
	C214.396103,348.671173 213.814453,349.256531 213.232788,349.841858 
	C212.829147,349.237518 212.098923,348.644958 212.076584,348.026855 
	C211.959579,344.787018 212.021896,341.540649 212.695587,338.191742 
	C216.488159,340.449524 214.306351,344.199860 214.987213,347.635559 
z"/>
<path fill="#000000" opacity="1.000000" stroke="none" 
	d="
M250.997009,241.001694 
	C240.901489,241.001694 231.305359,241.001694 221.584381,241.001694 
	C222.150909,237.118301 224.243790,235.904037 227.797089,235.948853 
	C238.914520,236.089096 250.036377,236.104935 261.153137,235.940002 
	C264.733795,235.886887 266.731506,237.183151 267.529999,241.001694 
	C262.031311,241.001694 256.763855,241.001694 250.997009,241.001694 
z"/>
<path fill="#000000" opacity="1.000000" stroke="none" 
	d="
M244.013000,247.999878 
	C239.406036,247.844864 235.287384,247.689865 231.168732,247.534851 
	C231.187851,246.732391 231.206955,245.929916 231.226074,245.127457 
	C240.025452,243.124435 248.876358,243.715332 257.787872,245.396118 
	C253.919189,249.655197 248.941650,247.333588 244.013000,247.999878 
z"/>
<path fill="#000000" opacity="1.000000" stroke="none" 
	d="
M221.645966,290.011322 
	C223.334976,291.416046 224.605072,292.816925 225.875168,294.217804 
	C223.677948,295.427094 221.480743,296.636383 219.283524,297.845642 
	C218.959061,297.426331 218.634598,297.007019 218.310135,296.587677 
	C218.931885,294.261017 215.174332,290.269440 221.645966,290.011322 
z"/>
</svg>